<svg xmlns="http://www.w3.org/2000/svg" viewBox="0 0 980 200" width="980" height="200">
  <defs>
    <style>
      @import url('https://fonts.googleapis.com/css2?family=Montserrat:wght@700;400&amp;display=swap');
    </style>
  </defs>

  <!-- Chef Icon scaled to fit ~170px height -->
  <g transform="translate(10,15) scale(0.322)">
    <g transform="translate(-256.6,543.5) scale(0.1,-0.1)" fill="#142547" stroke="none">
      <path d="M5055 5433 c-265 -24 -460 -161 -544 -380 -40 -102 -41 -103 -38 -22
l2 76 -70 -19 c-143 -40 -243 -118 -298 -235 -29 -62 -32 -76 -32 -163 1 -121
24 -179 101 -249 61 -56 136 -88 225 -98 33 -3 62 -9 64 -13 2 -4 16 -60 29
-124 l25 -116 -30 -56 c-26 -51 -29 -65 -29 -152 l0 -96 -152 -226 -152 -226
-76 -18 c-145 -35 -361 -128 -490 -210 l-65 -42 -115 -1 c-331 -4 -617 -177
-756 -458 -71 -145 -88 -222 -88 -410 0 -149 2 -166 28 -240 32 -95 75 -174
151 -280 52 -72 58 -86 70 -164 21 -128 60 -253 115 -370 92 -192 196 -309
340 -381 54 -27 108 -65 150 -104 88 -84 182 -164 257 -218 34 -25 100 -81
147 -124 191 -175 297 -197 502 -105 49 22 156 56 239 76 298 73 483 165 703
349 122 103 217 204 452 486 282 337 373 430 441 454 92 31 222 98 208 106 -8
4 -52 10 -99 14 -66 5 -98 13 -144 36 -33 17 -60 29 -61 28 -1 -2 -11 -20 -24
-40 -13 -23 -53 -57 -104 -91 -335 -220 -316 -206 -626 -471 -176 -152 -292
-236 -416 -305 -131 -73 -137 -73 -79 -5 28 32 67 82 87 110 36 50 92 162 85
169 -2 2 -30 -17 -63 -42 -182 -138 -406 -263 -562 -313 -124 -40 -212 -48
-289 -25 -96 27 -125 56 -164 162 -9 24 -27 40 -80 67 -116 61 -183 117 -238
199 -27 42 -57 98 -66 125 l-17 50 32 53 c116 198 308 344 546 415 73 22 109
27 215 28 71 0 128 2 128 4 0 10 -66 96 -104 135 -123 127 -306 197 -514 197
-47 0 -83 3 -80 6 15 15 123 35 203 39 l90 4 -4 32 c-5 52 -40 160 -68 207
-22 39 -23 43 -6 33 48 -25 126 -141 158 -234 20 -60 20 -60 88 -88 135 -54
249 -147 336 -273 23 -33 41 -64 41 -71 0 -6 -17 -19 -37 -29 -124 -59 -253
-187 -313 -311 -63 -129 -60 -135 21 -49 100 105 212 187 344 250 136 65 241
96 460 135 197 34 312 65 480 127 316 117 365 132 450 132 65 0 107 -8 215
-40 156 -46 233 -92 332 -199 l61 -66 -7 107 c-7 119 -37 251 -85 372 -16 44
-29 81 -27 83 6 6 91 -118 124 -180 43 -83 80 -202 95 -312 l13 -90 85 -6 c46
-3 109 -14 139 -24 61 -20 186 -80 194 -93 2 -4 -28 1 -67 11 -55 15 -106 20
-217 20 -160 1 -249 -15 -390 -71 -221 -89 -317 -128 -330 -137 -18 -12 -134
-154 -275 -340 -54 -71 -128 -165 -163 -208 -35 -43 -62 -80 -60 -81 1 -2 57
-20 123 -41 66 -20 199 -65 295 -100 556 -199 833 -212 1219 -55 53 21 130 44
171 50 218 32 287 148 250 422 -5 40 -14 143 -19 228 -6 89 -19 188 -30 232
-70 273 -219 454 -531 647 l-35 22 40 -7 c22 -4 59 -12 83 -19 42 -13 42 -13
42 12 0 38 -56 198 -97 275 -20 38 -65 100 -101 139 -146 158 -322 234 -566
244 l-108 5 -87 53 c-128 80 -132 82 -142 66 -5 -8 -9 -20 -9 -27 0 -25 -40
-90 -70 -115 -31 -27 -120 -59 -197 -72 -34 -5 -43 -12 -54 -38 -13 -32 -115
-147 -130 -147 -4 0 7 29 26 64 18 35 38 88 44 118 l12 54 92 17 c160 31 189
56 218 189 26 116 24 131 -22 238 -31 69 -43 112 -47 160 -4 65 -4 65 26 76
36 14 58 46 68 98 l7 40 -28 -22 c-15 -12 -37 -22 -48 -22 -19 0 -19 4 -13 68
21 198 22 178 -14 253 l-34 68 27 53 c15 29 27 63 27 74 0 11 -17 54 -39 95
-33 64 -43 99 -71 252 -35 196 -35 239 -2 165 12 -27 24 -48 27 -48 3 0 23 9
45 20 92 47 160 135 187 244 14 58 14 77 4 134 -23 125 -101 231 -205 280 -71
34 -191 54 -272 47 -39 -4 -76 -10 -82 -14 -8 -4 -4 -23 13 -56 13 -28 26 -63
30 -80 l6 -30 -22 30 c-48 65 -149 152 -216 188 -98 51 -240 80 -348 70z m680
-1092 c28 -6 60 -13 71 -16 13 -3 37 -32 63 -76 22 -39 41 -75 41 -79 0 -7
-76 -30 -99 -30 -6 0 -19 10 -31 22 l-20 22 0 -25 c-1 -13 -7 -37 -14 -54 -11
-26 -10 -34 5 -60 10 -16 34 -84 54 -150 l36 -120 -26 -22 c-32 -28 -64 -29
-112 -3 -23 12 -57 20 -86 20 -56 0 -69 18 -44 62 14 24 14 28 1 28 -19 0 -64
-45 -64 -64 0 -8 5 -27 12 -41 15 -32 11 -35 -92 -70 -90 -30 -131 -31 -189
-5 -55 25 -54 25 -46 -7 13 -55 45 -92 103 -120 52 -26 66 -28 167 -27 107 0
223 22 252 46 9 7 21 5 40 -8 16 -10 54 -25 86 -34 l58 -16 3 -84 c2 -68 9
-101 34 -165 37 -92 40 -142 12 -203 -21 -47 -48 -62 -110 -62 -38 0 -39 0
-33 34 3 23 -2 48 -18 82 l-22 49 -7 -60 c-8 -70 -31 -112 -69 -123 -14 -4
-97 -7 -183 -7 l-157 0 -173 89 c-310 158 -357 191 -377 262 -6 21 -11 112
-11 201 l0 163 -34 -17 c-63 -29 -116 10 -170 127 -29 63 -34 132 -12 185 16
39 42 55 86 55 66 0 113 -45 135 -130 l11 -45 57 -3 57 -3 -6 84 c-8 105 -4
123 46 185 37 48 39 53 33 101 -6 49 -5 51 23 62 43 16 171 49 234 59 69 11
417 4 485 -9z m180 -414 c28 -49 32 -99 14 -190 -13 -61 -16 -64 -43 -44 -17
12 -17 14 1 44 17 31 17 33 -11 118 -15 47 -25 93 -22 101 10 26 35 14 61 -29z
m-1334 -311 c29 -29 60 -48 88 -56 l44 -11 -7 -62 c-25 -248 -24 -254 84 -358
61 -59 87 -94 120 -160 54 -106 106 -183 189 -278 60 -69 62 -74 35 -67 -81
19 -230 73 -314 114 l-95 47 -27 77 c-23 66 -47 169 -75 327 l-8 45 -46 -110
c-26 -60 -53 -126 -60 -146 -7 -21 -18 -38 -24 -38 -19 0 -170 165 -198 217
-32 61 -38 43 68 213 40 63 96 154 126 202 30 48 55 88 55 88 1 0 21 -20 45
-44z"/>
      <path d="M5230 4230 c-41 -19 -130 -95 -130 -111 0 -3 24 2 53 12 61 21 110
23 152 5 l30 -13 -37 -12 c-20 -7 -52 -24 -71 -40 l-35 -27 130 -11 c72 -6
135 -16 140 -21 6 -6 -1 -18 -19 -32 -28 -22 -28 -22 -3 -15 64 18 178 109
201 159 25 55 25 75 1 53 -29 -26 -75 -20 -189 24 -131 51 -165 56 -223 29z"/>
      <path d="M4622 3968 c-7 -7 -12 -23 -12 -35 0 -21 2 -22 21 -12 17 8 24 8 36
-3 12 -13 12 -19 -3 -45 -15 -26 -16 -35 -5 -60 11 -28 46 -53 73 -53 9 0 9 3
0 12 -17 17 -15 58 4 79 13 15 14 24 5 51 -23 65 -85 100 -119 66z"/>
      <path d="M5305 3790 c-16 -4 -51 -8 -77 -9 -26 0 -65 -8 -87 -17 -32 -13 -43
-24 -57 -59 -21 -55 -14 -109 25 -190 l27 -60 -4 91 c-6 125 4 142 112 193 46
22 87 45 91 50 3 6 5 10 3 10 -2 -1 -16 -5 -33 -9z"/>
      <path d="M5480 3444 c0 -10 49 -46 86 -64 34 -15 64 -20 129 -20 84 0 87 1
116 32 16 18 29 36 29 41 0 5 -60 6 -132 2 -73 -3 -154 -2 -180 3 -27 5 -48 8
-48 6z"/>
    </g>
  </g>

  <!-- Brand Text -->
  <text y="120" font-family="Montserrat, 'Helvetica Neue', Arial, sans-serif" fill="#142547" dominant-baseline="middle">
    <tspan x="200" font-weight="700" font-size="68" letter-spacing="-1">CocinaLimpia</tspan><tspan font-weight="400" font-size="38" letter-spacing="1">.com.mx</tspan>
  </text>
</svg>